<?xml version="1.0" encoding="UTF-8" standalone="no" ?>
<!DOCTYPE svg PUBLIC "-//W3C//DTD SVG 1.1//EN" "http://www.w3.org/Graphics/SVG/1.1/DTD/svg11.dtd">
<svg xmlns="http://www.w3.org/2000/svg" xmlns:xlink="http://www.w3.org/1999/xlink" version="1.1" width="1080" height="1080" viewBox="0 0 1080 1080" xml:space="preserve">
<desc>Created with Fabric.js 5.2.4</desc>
<defs>
</defs>
<rect x="0" y="0" width="100%" height="100%" fill="transparent"></rect>
<g transform="matrix(1 0 0 1 540 540)" id="702d49ef-1668-49e5-b1df-286ff19b0e51"  >
</g>
<g transform="matrix(1 0 0 1 540 540)" id="619a0d2d-ad03-4943-8c6e-d937600830fb"  >
<rect style="stroke: none; stroke-width: 1; stroke-dasharray: none; stroke-linecap: butt; stroke-dashoffset: 0; stroke-linejoin: miter; stroke-miterlimit: 4; fill: rgb(255,255,255); fill-rule: nonzero; opacity: 1; visibility: hidden;" vector-effect="non-scaling-stroke"  x="-540" y="-540" rx="0" ry="0" width="1080" height="1080" />
</g>
<g transform="matrix(38.66 -139.68 131.99 -49.56 145.18 518.32)" id="_198492672"  >
<rect style="stroke: rgb(255,255,255); stroke-width: 0.03; stroke-dasharray: none; stroke-linecap: butt; stroke-dashoffset: 0; stroke-linejoin: miter; stroke-miterlimit: 4; fill: rgb(0,147,221); fill-rule: evenodd; opacity: 1;" vector-effect="non-scaling-stroke"  x="-0.515" y="-0.515" rx="0" ry="0" width="1.03" height="1.03" />
</g>
<g transform="matrix(38.66 -139.68 131.99 -49.56 292.07 460.52)" id="_198491904"  >
<rect style="stroke: rgb(31,26,23); stroke-width: 0; stroke-dasharray: none; stroke-linecap: butt; stroke-dashoffset: 0; stroke-linejoin: miter; stroke-miterlimit: 4; fill: rgb(255,255,255); fill-rule: evenodd; opacity: 1;" vector-effect="non-scaling-stroke"  x="-0.515" y="-0.515" rx="0" ry="0" width="1.03" height="1.03" />
</g>
<g transform="matrix(38.66 -139.68 131.99 -49.56 246.33 619.47)" id="_198492360"  >
<rect style="stroke: rgb(255,255,255); stroke-width: 0.03; stroke-dasharray: none; stroke-linecap: butt; stroke-dashoffset: 0; stroke-linejoin: miter; stroke-miterlimit: 4; fill: rgb(0,147,221); fill-rule: evenodd; opacity: 1;" vector-effect="non-scaling-stroke"  x="-0.515" y="-0.515" rx="0" ry="0" width="1.03" height="1.03" />
</g>
<g transform="matrix(1 0 0 1 851.18 540)" style="" id="00213418-f90d-4fd6-bd1d-f520b89ff8b3"  >
		<text xml:space="preserve" font-family="Raleway" font-size="105" font-style="normal" font-weight="900" style="stroke: none; stroke-width: 1; stroke-dasharray: none; stroke-linecap: butt; stroke-dashoffset: 0; stroke-linejoin: miter; stroke-miterlimit: 4; fill: rgb(255,255,255); fill-rule: nonzero; opacity: 1; white-space: pre;" ><tspan x="-432" y="-26.34" style="white-space: pre; ">Laraad </tspan><tspan x="-432" y="92.31" >Quick Pay</tspan></text>
</g>
</svg>